<svg width="42" height="50" viewBox="0 0 42 50" fill="none" xmlns="http://www.w3.org/2000/svg">
<path d="M21 49.6667V45H37.3333V42.6667H28V24H37.3333V21.6667C37.3333 17.1555 35.7389 13.3055 32.55 10.1167C29.3611 6.92777 25.5111 5.33332 21 5.33332C16.4889 5.33332 12.6389 6.92777 9.45 10.1167C6.26111 13.3055 4.66667 17.1555 4.66667 21.6667V24H14V42.6667H4.66667C3.38333 42.6667 2.28511 42.2101 1.372 41.297C0.458889 40.3839 0.00155556 39.2849 0 38V21.6667C0 18.7889 0.554556 16.076 1.66367 13.528C2.77278 10.98 4.27933 8.75399 6.18333 6.84999C8.08733 4.94599 10.3141 3.43943 12.8637 2.33032C15.4132 1.22121 18.1253 0.666656 21 0.666656C23.8747 0.666656 26.5876 1.22121 29.1387 2.33032C31.6898 3.43943 33.9158 4.94599 35.8167 6.84999C37.7176 8.75399 39.2249 10.9808 40.3387 13.5303C41.4524 16.0799 42.0062 18.792 42 21.6667V45C42 46.2833 41.5434 47.3823 40.6303 48.297C39.7172 49.2117 38.6182 49.6682 37.3333 49.6667H21ZM4.66667 38H9.33333V28.6667H4.66667V38ZM32.6667 38H37.3333V28.6667H32.6667V38Z" fill="#0033A0"/>
</svg>
