<svg width="56" height="56" viewBox="0 0 56 56" fill="none" xmlns="http://www.w3.org/2000/svg">
<path d="M34.2999 14.7C33.8724 15.1362 33.6329 15.7226 33.6329 16.3333C33.6329 16.9441 33.8724 17.5305 34.2999 17.9667L38.0332 21.7C38.4694 22.1275 39.0558 22.367 39.6666 22.367C40.2773 22.367 40.8637 22.1275 41.2999 21.7L50.0966 12.9033C51.2699 15.4961 51.6251 18.3849 51.115 21.1847C50.6048 23.9845 49.2536 26.5623 47.2412 28.5747C45.2289 30.587 42.651 31.9383 39.8512 32.4484C37.0515 32.9585 34.1627 32.6033 31.5699 31.43L15.4466 47.5533C14.5183 48.4816 13.2593 49.0031 11.9466 49.0031C10.6338 49.0031 9.37483 48.4816 8.44657 47.5533C7.51832 46.6251 6.99683 45.3661 6.99683 44.0533C6.99683 42.7406 7.51832 41.4816 8.44657 40.5533L24.5699 24.43C23.3966 21.8372 23.0414 18.9485 23.5515 16.1487C24.0616 13.3489 25.4129 10.771 27.4253 8.75869C29.4376 6.74634 32.0154 5.39506 34.8152 4.88494C37.615 4.37481 40.5038 4.73005 43.0966 5.90334L34.3232 14.6767L34.2999 14.7Z" stroke="#0033A0" stroke-width="4" stroke-linecap="round" stroke-linejoin="round"/>
</svg>
