<svg width="48" height="38" viewBox="0 0 48 38" fill="none" xmlns="http://www.w3.org/2000/svg">
<path d="M0.666748 37.6667V14.3333C0.666748 13.05 1.12408 11.9518 2.03875 11.0387C2.95341 10.1256 4.05164 9.66823 5.33341 9.66668H12.3334V5.00001C12.3334 3.71668 12.7907 2.61845 13.7054 1.70534C14.6201 0.792232 15.7183 0.334899 17.0001 0.333344H31.0001C32.2834 0.333344 33.3824 0.790676 34.2971 1.70534C35.2117 2.62001 35.6683 3.71823 35.6667 5.00001V9.66668H42.6667C43.9501 9.66668 45.0491 10.124 45.9637 11.0387C46.8784 11.9533 47.335 13.0516 47.3334 14.3333V37.6667H0.666748ZM14.6667 26V28.3333H10.0001V26H5.33341V33H42.6667V26H38.0001V28.3333H33.3334V26H14.6667ZM5.33341 14.3333V21.3333H10.0001V19H14.6667V21.3333H33.3334V19H38.0001V21.3333H42.6667V14.3333H5.33341ZM17.0001 9.66668H31.0001V5.00001H17.0001V9.66668Z" fill="#0033A0"/>
</svg>
