<svg width="62" height="54" viewBox="0 0 62 54" fill="none" xmlns="http://www.w3.org/2000/svg">
<path d="M58.075 24.15V48C58.075 49.65 57.488 51.063 56.314 52.239C55.14 53.415 53.727 54.002 52.075 54H10.075C8.42499 54 7.01299 53.413 5.83899 52.239C4.66499 51.065 4.07699 49.652 4.07499 48V24.15C2.92499 23.1 2.03799 21.75 1.41399 20.1C0.789993 18.45 0.776993 16.65 1.37499 14.7L4.52499 4.5C4.92499 3.2 5.63799 2.125 6.66399 1.275C7.68999 0.425 8.87699 0 10.225 0H51.925C53.275 0 54.45 0.413 55.45 1.239C56.45 2.065 57.175 3.152 57.625 4.5L60.775 14.7C61.375 16.65 61.363 18.425 60.739 20.025C60.115 21.625 59.227 23 58.075 24.15ZM37.675 21C39.025 21 40.05 20.538 40.75 19.614C41.45 18.69 41.725 17.652 41.575 16.5L39.925 6H34.075V17.1C34.075 18.15 34.425 19.063 35.125 19.839C35.825 20.615 36.675 21.002 37.675 21ZM24.175 21C25.325 21 26.263 20.612 26.989 19.836C27.715 19.06 28.077 18.148 28.075 17.1V6H22.225L20.575 16.5C20.375 17.7 20.637 18.75 21.361 19.65C22.085 20.55 23.023 21 24.175 21ZM10.825 21C11.725 21 12.512 20.675 13.186 20.025C13.86 19.375 14.273 18.55 14.425 17.55L16.075 6H10.225L7.22499 16.05C6.92499 17.05 7.08699 18.125 7.71099 19.275C8.33499 20.425 9.37299 21 10.825 21ZM51.325 21C52.775 21 53.825 20.425 54.475 19.275C55.125 18.125 55.275 17.05 54.925 16.05L51.775 6H46.075L47.725 17.55C47.875 18.55 48.288 19.375 48.964 20.025C49.64 20.675 50.427 21 51.325 21ZM10.075 48H52.075V26.85C51.825 26.95 51.663 27 51.589 27H51.325C49.975 27 48.788 26.775 47.764 26.325C46.74 25.875 45.727 25.15 44.725 24.15C43.825 25.05 42.8 25.75 41.65 26.25C40.5 26.75 39.275 27 37.975 27C36.625 27 35.362 26.75 34.186 26.25C33.01 25.75 31.973 25.05 31.075 24.15C30.225 25.05 29.238 25.75 28.114 26.25C26.99 26.75 25.777 27 24.475 27C23.025 27 21.713 26.75 20.539 26.25C19.365 25.75 18.327 25.05 17.425 24.15C16.375 25.2 15.338 25.938 14.314 26.364C13.29 26.79 12.127 27.002 10.825 27H10.489C10.363 27 10.225 26.95 10.075 26.85V48Z" fill="#EFE40E"/>
</svg>
